<?xml version="1.0" standalone="no"?><!DOCTYPE svg PUBLIC "-//W3C//DTD SVG 1.1//EN" "http://www.w3.org/Graphics/SVG/1.1/DTD/svg11.dtd"><svg t="1606901206465" class="icon" viewBox="0 0 1024 1024" version="1.1" xmlns="http://www.w3.org/2000/svg" p-id="9085" xmlns:xlink="http://www.w3.org/1999/xlink" width="48" height="48"><defs><style type="text/css"></style></defs><path d="M517.7 520.6m-87.3 0a87.3 87.3 0 1 0 174.6 0 87.3 87.3 0 1 0-174.6 0Z" p-id="9086" fill="#137af0"></path><path d="M365.2 819.9v-89.7c0-63.4 51.9-115.3 115.3-115.3h69.9c63.4 0 115.3 51.9 115.3 115.3v89.7c0 5.8-75.1 29.1-150.2 27.7-75.2-1.5-150.3-27.7-150.3-27.7zM450 435.1c0.1-1.8 0.2-3.5 0.2-5.3 0-48.2-39.1-87.3-87.3-87.3-48.2 0-87.3 39.1-87.3 87.3 0 48.2 39.1 87.3 87.3 87.3 17.3 0 33.5-5.1 47.1-13.8 4.3-27.5 19.1-51.6 40-68.2z" p-id="9087" fill="#137af0"></path><path d="M441.6 598.8c-19.4-18.9-31.8-45-32.9-73.9-4.3-0.5-8.7-0.8-13.2-0.8h-69.9c-63.4 0-115.3 51.9-115.3 115.3v89.7s64.1 22.4 133.1 26.9v-25.8c-0.1-62.1 41.5-114.6 98.2-131.4zM625.6 503.7c13.5 8.5 29.4 13.4 46.4 13.4 48.2 0 87.3-39.1 87.3-87.3 0-48.2-39.1-87.3-87.3-87.3-48.2 0-87.3 39.1-87.3 87.3 0 1.6 0.1 3.2 0.1 4.8 21.4 16.7 36.5 41.2 40.8 69.1zM545.7 355.5h-69.9c-10.2 0-20.1 1.4-29.6 3.9 14.4 17.1 23.7 38.6 25.4 62.2 14-6.5 29.6-10.2 46-10.2 16.2 0 31.6 3.6 45.5 10 1.7-22 9.9-42.1 22.7-58.6-12.4-4.7-26-7.3-40.1-7.3zM597.6 239.1c-9.8-37.5-43.9-65.2-84.5-65.2-39.7 0-73.2 26.5-83.8 62.7-2.3 7.8-3.5 16.1-3.5 24.6 0 13.9 3.2 26.9 9 38.6 14.2 28.9 44 48.8 78.4 48.8 35.4 0 65.8-21 79.5-51.3 5-11 7.8-23.2 7.8-36.1-0.1-7.6-1.1-15-2.9-22.1zM704.7 524.1h-69.9c-2.7 0-5.3 0.1-8 0.3-1 29.7-13.9 56.3-34.1 75.4 54.9 17.9 94.7 69.6 94.7 130.4v26.4c68.8-2 132.5-22.2 132.5-27.6v-89.7c0-63.3-51.8-115.2-115.2-115.2zM303.2 338.4c-3-45.5-40.8-81.5-87.1-81.5-48.2 0-87.3 39.1-87.3 87.3 0 48.2 39.1 87.3 87.3 87.3 13.5 0 26.4-3.1 37.8-8.6 2.2-35.3 21.3-66.2 49.3-84.5z" p-id="9088" fill="#137af0"></path><path d="M286.7 507.9c-18.4-17.9-30.5-42.2-32.6-69.3-1.8-0.1-3.6-0.1-5.3-0.1h-69.9c-63.4 0-115.3 51.9-115.3 115.3v89.7s59.1 20.6 124.9 26.3v-30.4c0-62.1 41.5-114.7 98.2-131.5zM781.1 426.2c9.4 3.4 19.5 5.3 30.1 5.3 48.2 0 87.3-39.1 87.3-87.3 0-48.2-39.1-87.3-87.3-87.3-44.8 0-81.7 33.7-86.7 77.2 32.8 18 55.3 52.4 56.6 92.1zM403.9 261.2c0-10.4 1.5-20.7 4.4-30.8 1.6-5.3 3.5-10.5 5.9-15.4-15.9-16.7-38.4-27.2-63.3-27.2-38.8 0-71.7 25.3-83.1 60.3 29.5 16 50.9 45.1 56.2 79.6 12.1-4.6 25.2-7.2 38.8-7.2 19 0 36.9 4.9 52.5 13.5 3-3.3 5.7-6.8 8.1-10.4-3.1-4.5-5.9-9.2-8.4-14.2-7.3-15.1-11.1-31.3-11.1-48.2zM677.1 187.8c-25.6 0-48.5 11-64.5 28.5 2.5 5.5 4.5 11.3 6.1 17.3 2.3 9 3.5 18.3 3.5 27.6 0 15.7-3.3 30.9-9.8 45.1-2.5 5.6-5.5 10.9-8.9 15.9 3.3 5.2 7.2 10.1 11.5 14.4 16.6-10.2 36.1-16.1 56.9-16.1 11 0 21.6 1.7 31.7 4.7 5.9-34 27.3-62.2 56.4-77.6-11.5-34.7-44.2-59.8-82.9-59.8zM843.8 438.5h-63C778.6 466.2 766 491 747 509c54.9 17.9 94.7 69.6 94.7 130.4v30.9c62.7-4.2 117.3-21.9 117.3-26.8v-89.7c0.1-63.4-51.8-115.3-115.2-115.3z" p-id="9089" fill="#137af0"></path></svg>