<?xml version="1.0" standalone="no"?><!DOCTYPE svg PUBLIC "-//W3C//DTD SVG 1.1//EN" "http://www.w3.org/Graphics/SVG/1.1/DTD/svg11.dtd"><svg t="1606901174481" class="icon" viewBox="0 0 1024 1024" version="1.1" xmlns="http://www.w3.org/2000/svg" p-id="8282" xmlns:xlink="http://www.w3.org/1999/xlink" width="48" height="48"><defs><style type="text/css"></style></defs><path d="M945.8 882.5H902V340.3c0-14.6-7.7-28-20.3-35.4L659.6 175.4c-12.7-7.4-28.3-7.4-41-0.1-12.7 7.3-20.6 20.9-20.6 35.5v671.7h-46.6V104.3c0-13.8-6.9-26.6-18.4-34.2-11.5-7.6-26-8.9-38.7-3.4l-347.2 149c-15.1 6.5-24.8 21.3-24.8 37.6v629.2H78.7c-8 0-14.5 6.5-14.5 14.5v47.2c0 8 6.5 14.5 14.5 14.5h867.1c8 0 14.5-6.5 14.5-14.5V897c0.1-8-6.4-14.5-14.5-14.5zM711.2 322.1c0-8 6.5-14.5 14.5-14.5h46.1c8 0 14.5 6.5 14.5 14.5v46.1c0 8-6.5 14.5-14.5 14.5h-46.1c-8 0-14.5-6.5-14.5-14.5v-46.1z m0 116.1c0-8 6.5-14.5 14.5-14.5h46.1c8 0 14.5 6.5 14.5 14.5v46.1c0 8-6.5 14.5-14.5 14.5h-46.1c-8 0-14.5-6.5-14.5-14.5v-46.1z m0 116.1c0-8 6.5-14.5 14.5-14.5h46.1c8 0 14.5 6.5 14.5 14.5v46.1c0 8-6.5 14.5-14.5 14.5h-46.1c-8 0-14.5-6.5-14.5-14.5v-46.1z m0 116.1c0-8 6.5-14.5 14.5-14.5h46.1c8 0 14.5 6.5 14.5 14.5v46.1c0 8-6.5 14.5-14.5 14.5h-46.1c-8 0-14.5-6.5-14.5-14.5v-46.1z m0 116.1c0-8 6.5-14.5 14.5-14.5h46.1c8 0 14.5 6.5 14.5 14.5v46.1c0 8-6.5 14.5-14.5 14.5h-46.1c-8 0-14.5-6.5-14.5-14.5v-46.1zM368.6 206c0-8 6.5-14.5 14.5-14.5h46.1c8 0 14.5 6.5 14.5 14.5v46.1c0 8-6.5 14.5-14.5 14.5h-46.1c-8 0-14.5-6.5-14.5-14.5V206z m0 116.1c0-8 6.5-14.5 14.5-14.5h46.1c8 0 14.5 6.5 14.5 14.5v46.1c0 8-6.5 14.5-14.5 14.5h-46.1c-8 0-14.5-6.5-14.5-14.5v-46.1z m0 116.1c0-8 6.5-14.5 14.5-14.5h46.1c8 0 14.5 6.5 14.5 14.5v46.1c0 8-6.5 14.5-14.5 14.5h-46.1c-8 0-14.5-6.5-14.5-14.5v-46.1z m0 116.1c0-8 6.5-14.5 14.5-14.5h46.1c8 0 14.5 6.5 14.5 14.5v46.1c0 8-6.5 14.5-14.5 14.5h-46.1c-8 0-14.5-6.5-14.5-14.5v-46.1z m0 116.1c0-8 6.5-14.5 14.5-14.5h46.1c8 0 14.5 6.5 14.5 14.5v46.1c0 8-6.5 14.5-14.5 14.5h-46.1c-8 0-14.5-6.5-14.5-14.5v-46.1z m0 116.1c0-8 6.5-14.5 14.5-14.5h46.1c8 0 14.5 6.5 14.5 14.5v46.1c0 8-6.5 14.5-14.5 14.5h-46.1c-8 0-14.5-6.5-14.5-14.5v-46.1zM228.8 322.1c0-8 6.5-14.5 14.5-14.5h46.1c8 0 14.5 6.5 14.5 14.5v46.1c0 8-6.5 14.5-14.5 14.5h-46.1c-8 0-14.5-6.5-14.5-14.5v-46.1z m0 116.1c0-8 6.5-14.5 14.5-14.5h46.1c8 0 14.5 6.5 14.5 14.5v46.1c0 8-6.5 14.5-14.5 14.5h-46.1c-8 0-14.5-6.5-14.5-14.5v-46.1z m0 116.1c0-8 6.5-14.5 14.5-14.5h46.1c8 0 14.5 6.5 14.5 14.5v46.1c0 8-6.5 14.5-14.5 14.5h-46.1c-8 0-14.5-6.5-14.5-14.5v-46.1z m0 116.1c0-8 6.5-14.5 14.5-14.5h46.1c8 0 14.5 6.5 14.5 14.5v46.1c0 8-6.5 14.5-14.5 14.5h-46.1c-8 0-14.5-6.5-14.5-14.5v-46.1z m0 116.1c0-8 6.5-14.5 14.5-14.5h46.1c8 0 14.5 6.5 14.5 14.5v46.1c0 8-6.5 14.5-14.5 14.5h-46.1c-8 0-14.5-6.5-14.5-14.5v-46.1z m0 0" fill="#d4237a" p-id="8283"></path></svg>